<svg width="68" height="70" viewBox="0 0 68 70" fill="none" xmlns="http://www.w3.org/2000/svg">
<path d="M68 42.7778V62.2222C68 64.285 67.204 66.2633 65.787 67.7219C64.3701 69.1806 62.4483 70 60.4444 70H7.55556C5.5517 70 3.62991 69.1806 2.21297 67.7219C0.796029 66.2633 0 64.285 0 62.2222V7.77778C0 5.71498 0.796029 3.73667 2.21297 2.27806C3.62991 0.819442 5.5517 0 7.55556 0H26.4444V7.77778H7.55556V62.2222H60.4444V42.7778H68Z" fill="#FBC403"/>
<path d="M67.9999 15.5556H52.8888V0H45.3333V15.5556H30.2222V23.3333H45.3333V38.8889H52.8888V23.3333H67.9999V15.5556Z" fill="#FBC403"/>
</svg>
